<?xml version="1.0" encoding="UTF-8"?><svg id="Vrstva_1" xmlns="http://www.w3.org/2000/svg" viewBox="0 0 247 64"><defs><style>.cls-1{fill:#fff;}</style></defs><path class="cls-1" d="M228.21,63.2h-.65s-5.4-8-5.4-8l-.1,7.29c0,.31-.13.55-.33.7h-.76s.2-9.27.2-9.27c.3-.09.98-.16,1.28.04l5.08,7.4.04-7.45c.34-.09.62-.08.9,0l.02,8.11c0,.46-.04.86-.27,1.17Z"/><path class="cls-1" d="M191.31,63.21c-.39-.13-.66,0-.9,0,.02-.37-.17-.66-.43-1l-2.47-3.27,1.77-.17c1.02-.1,1.67-.99,1.69-1.89.02-1.01-.65-1.85-1.75-2.08-.86-.18-1.69-.13-2.69-.1l-.02,7.78c0,.3-.09.54-.26.71l-.64.02v-9.32s3.34.02,3.34.02c1.7,0,2.86,1.2,2.91,2.74s-.92,2.87-2.68,3l2.27,3.01c.14.19.03.44-.15.56Z"/><path class="cls-1" d="M9.06,63.2h-2.42c-.02-.28-.35-.32-.64-.45-2.04-.95-3.01-2.94-2.72-5.07.28-2.01,1.87-3.59,3.91-3.92s4.2.59,5.02,2.46c-.76.1-1.04-.08-1.38-.44-1.54-1.62-4.15-1.48-5.63.05s-1.32,4.14.22,5.5c1.73,1.52,4.21,1.32,5.69-.45.26-.3.88-.29,1.14-.15-.73,1.39-1.89,1.99-3.2,2.48Z"/><path class="cls-1" d="M30.89,63.19h-.76s-1.19-3.24-1.19-3.24l-4.21-.02-1.29,2.95c-.16.12-.59.18-1.01-.01l3.84-8.87c.12-.28,1.04-.22,1.16.05l3.62,8.36c.14.33.09.6-.16.79ZM28.6,59.1l-1.8-4.12-1.72,4.12h3.52Z"/><path class="cls-1" d="M157.25,63.2h-.78s-1.21-3.25-1.21-3.25h-4.26s-1.27,3.04-1.27,3.04c-.36,0-.53.02-.96-.13l3.84-8.88c.09-.21.93-.19,1.1-.02l3.61,8.3c.17.39.23.67-.07.95ZM154.94,59.1l-1.81-4.1-1.71,4.1h3.52Z"/><path class="cls-1" d="M122.48,63.2h-2.24c-.81-.61-1.71-1.27-1.72-2.7h1.01c.08.91.59,1.55,1.28,1.73.85.22,1.66-.04,2.13-.68s.49-1.58-.14-2.2c-1.18-1.16-4.11-.63-3.98-3.42.05-1.12.85-1.99,2.1-2.21,1.59-.28,3.08.93,3.01,2.38-.26.13-.71.11-.85-.01-.12-.1-.17-.35-.25-.56-.35-.84-1.28-1.08-1.99-.84-.83.27-1.25,1.02-.98,1.91.45,1.5,3.54.91,4.2,3.07.49,1.61-.33,2.5-1.58,3.54Z"/><path class="cls-1" d="M172.09,63.2h-1.83c-1.36-.62-2.21-1.72-2.2-3.34v-5.95c.39-.09.67-.07.94,0l.05,6.41c0,1.25,1.18,2.11,2.29,2.06,1-.05,2.04-.89,2.05-2.07l.06-6.4c.27-.07.55-.09.94,0v5.95c-.02,1.59-.87,2.75-2.29,3.34Z"/><path class="cls-1" d="M42.44,63.2h-.69s.02-9.33.02-9.33l4.61-.03c.05.25.06.52,0,.88h-3.7s0,3.29,0,3.29l3.6.04c.05.36,0,.61-.08.76l-3.52.03-.04,3.83c0,.22-.12.4-.21.52Z"/><path class="cls-1" d="M241.63,63.19c-.25,0-.46-.04-.64.01l.02-8.54-2.1-.06v-.74s5.1,0,5.1,0c.09.28.02.69-.11.76l-1.98.04v7.11c0,.55,0,1.03-.29,1.41Z"/><path class="cls-1" d="M208.37,59.95h-4.26s-1.32,2.94-1.32,2.94c-.17.11-.61.15-.98-.01l3.84-8.87c.11-.24,1.04-.24,1.15,0l3.83,8.87c-.36.17-.81.13-.97.01l-1.29-2.94ZM207.97,59.08l-1.75-4.02-1.76,4.06,3.51-.03Z"/><path class="cls-1" d="M88.21,58.99l1.82-.25c.98-.26,1.54-.99,1.56-1.88s-.6-1.76-1.63-2.04c-.89-.24-1.82-.15-2.79-.1v8.2c-.37.08-.56.07-.91,0v-9.03s3.44.02,3.44.02c1.62,0,2.78,1.26,2.8,2.73s-.86,2.83-2.66,3l2.38,3.21c-.52.22-.86.12-1.18-.03l-2.83-3.84Z"/><path class="cls-1" d="M61.99,58.83h-3.93s0,3.38,0,3.38l4.03.04c.11.09.12.61,0,.7h-4.95s0-9.08,0-9.08l4.96-.02c.09.38.05.63,0,.84h-4.04s0,3.31,0,3.31l3.97.02c.06.27.07.56-.05.8Z"/><path class="cls-1" d="M108,58.88l-3.91-.03v3.38s4.04.05,4.04.05c.14,0,.14.66,0,.66l-4.97.02v-9.09s4.98-.01,4.98-.01l.05.85-4.1.04v3.29s3.96,0,3.96,0c.05.27.07.54-.06.84Z"/><path class="cls-1" d="M136.98,62.83c-.07.16-.62.24-.86.09v-8.2s-2.07-.1-2.07-.1c-.17,0-.15-.72-.01-.72l5.02-.03c.07.29.06.47,0,.76l-2.06.05-.02,8.16Z"/><polygon class="cls-1" points="246.26 5.35 246.26 9.07 237.25 8.97 237.25 46.86 233.28 46.82 233.28 8.97 224.19 8.96 224.2 5.3 246.26 5.35"/><polygon class="cls-1" points="191.53 46.84 191.41 10.28 176.6 46.86 173.16 46.88 158.32 10.19 158.26 46.87 154.29 46.86 154.3 5.28 160.47 5.28 174.94 40.78 189.32 5.32 195.48 5.3 195.48 46.88 191.53 46.84"/><path class="cls-1" d="M19.88,27.39c1.1-1.04,2.56-.9,4.29-.83,4.54.18,9.05.35,13.67.89.1-1.56,1.08-2.5,2.48-2.75,2.36-.42,4.84.22,6.78,1.58.93.65,1.16,1.51.97,2.55-2.25,12.24-13.44,20.6-25.72,19.46S.85,36.99.74,24.84C.62,12.73,9.72,2.3,22.03.94c8-.89,15.91,2.36,21.04,8.63l-4.34.75C29.82,1.44,15.29,2.67,7.93,12.62c-7.37,9.96-4.15,24.07,6.75,29.93,10.91,5.86,24.64.71,28.85-11.19-2.89.49-5.37.08-5.67-2.69-5.43.53-10.76.84-16.22.9-.6,0-1.16-.43-1.41-.71-.35-.39-.37-.99-.34-1.46Z"/><path class="cls-1" d="M92.71,26.14c0,11.73-9.54,21.24-21.3,21.24s-21.3-9.51-21.3-21.24,9.54-21.24,21.3-21.24,21.3,9.51,21.3,21.24ZM88.8,26.19c0-9.55-7.76-17.29-17.34-17.29s-17.34,7.74-17.34,17.29,7.76,17.29,17.34,17.29,17.34-7.74,17.34-17.29Z"/><path class="cls-1" d="M133.67,28.04c5.43.08,10.29.03,13.61-4.26,1.99-3.19,1.94-7.27-.16-10.41-1.97-2.5-4.82-4.15-8.04-4.18l-9.35-.09v37.77s-3.99,0-3.99,0V5.3s11.65.01,11.65.01c2.65,0,5.16.4,7.57,1.33,3.65,1.33,6.21,4.21,7.1,7.99,1.33,4.53.35,9.32-2.73,12.87-2.08,2.42-4.82,3.72-8.3,3.88l11.1,15.51-5.03-.03-13.44-18.82Z"/><path class="cls-1" d="M117.73,32.96l.03-27.64,4-.05-.15,28.54c-.02,4.48-2.06,8.55-5.57,11.24-4.01,3.08-9.55,3.42-14.16,1.01-4.08-2.13-7.07-6.54-7.09-11.58l-.11-29.18h4s.05,28.48.05,28.48c.01,5.83,4.76,10.91,11.04,10,4.89-.71,7.95-5.63,7.95-10.82Z"/><polygon class="cls-1" points="220.63 27.79 203.56 27.8 203.56 43.25 221.22 43.25 221.24 46.91 199.59 46.91 199.59 5.3 221.25 5.3 221.25 9.07 203.56 9.07 203.56 24.1 220.66 24.11 220.63 27.79"/><path class="cls-1" d="M24.17,26.55c-1.73-.07-3.19-.2-4.29.83l.7-9.06c-2.26-3.87-1.81-9.06,1.7-12.21l.11,12.14.36,5.72c2.15-2.15,4.36-4.16,6.11-6.38-.49-.91-.9-2.11-.07-2.95l4.83-4.85-3.56,5.28c1.52-.5,2.11-1.96,3.25-2.86.22-.22.48-.3.67.05l-2.72,3.68.35.23,3.75-3.7.25.17-3.16,4.25.34.26,4.52-4.23c-1.34,2.15-2.87,3.93-4.47,5.75-.64.73-1.8.5-2.63-.03-2.16,2.62-4.19,5.18-6.02,7.89Z"/></svg>